<svg id="Layer_1" data-name="Layer 1" xmlns="http://www.w3.org/2000/svg" viewBox="0 0 3479.7 3521.92"><defs><style>.cls-1,.cls-4{fill:none;}.cls-2{fill:#820522;}.cls-3{fill:#fff;}.cls-4{stroke:#820522;stroke-linecap:round;stroke-linejoin:round;stroke-width:200px;}</style></defs><title>logo</title><g id="Default"><rect class="cls-1" x="-1294.04" y="-819.99" width="5792.32" height="8192"/></g><g id="page1"><path class="cls-2" d="M1745.27,2255.46c-11.31-.28-22.34-.55-33.65-1.1-10.76-.83-21.51-1.93-32.55-2.76l-31.44-5c-10.2-2.48-20.69-5-30.89-7.17-10.21-3-20.14-6.34-30.34-9.38-9.93-3.86-19.86-7.44-29.79-11.3-9.93-4.69-19.86-9.11-29.79-13.8-9.65-5.24-19.58-10.75-29.51-16-9.66-5.8-19-11.86-28.69-17.66-8.83-6.34-17.65-12.68-26.75-18.75-8.28-6.9-16.55-13.52-24.55-20.14l-23.17-21.51-21.52-23.17c-6.89-8.28-13.51-16.55-20.13-24.83-6.35-8.82-12.41-17.65-18.76-26.47-5.79-9.66-11.86-19-17.65-28.69-5.24-9.93-10.76-19.86-16-29.51-4.69-9.93-9.1-19.86-13.79-29.79-3.86-9.93-7.45-19.86-11.31-29.79-3-10.21-6.34-20.14-9.38-30.34-2.2-10.21-4.69-20.69-7.17-30.89l-5-31.45c-.83-11-1.93-21.79-2.76-32.55-.55-11.3-.83-22.34-1.1-33.65.27-11.31.55-22.34,1.1-33.65.83-10.75,1.93-21.51,2.76-32.54l5-31.45c2.48-10.2,5-20.69,7.17-30.89,3-9.93,6.35-20.14,9.38-30.07,3.86-9.93,7.45-20.13,11.31-30.06,4.69-9.65,9.1-19.58,13.79-29.51,5.24-9.93,10.76-19.59,16-29.52,5.79-9.65,11.86-19,17.65-28.68,6.35-8.83,12.69-17.66,18.76-26.48,6.89-8.28,13.51-16.55,20.13-24.83,7.17-7.72,14.35-15.44,21.79-23.17,7.45-7.17,15.17-14.61,22.9-21.79,8.27-6.62,16.55-13.24,24.82-20.13,8.83-6.35,17.65-12.41,26.48-18.76,9.65-5.79,19-11.86,28.69-17.65,9.93-5.24,19.58-10.48,29.51-16,9.93-4.41,19.86-9.1,29.79-13.51l29.79-11.59c9.93-3,20.13-6.07,30.34-9.1,10.2-2.48,20.41-5,30.61-7.17,10.49-1.66,21.24-3.31,31.72-5.24,10.76-.83,21.52-1.93,32.28-2.76,11.3-.55,22.34-.83,33.65-1.1,11.31.27,22.34.55,33.65,1.1,10.75.83,21.51,1.93,32.27,2.76,10.48,1.65,21.24,3.31,31.72,5,10.2,2.48,20.41,5,30.89,7.17,9.93,3,20.14,6.35,30.07,9.38,10.2,3.86,20.13,7.45,30.06,11.31,9.93,4.69,19.86,9.1,29.79,13.79,9.65,5.24,19.58,10.76,29.51,16,9.66,5.79,19,11.86,28.69,17.65,8.83,6.35,17.65,12.69,26.75,18.76,8.28,6.89,16.55,13.51,24.55,20.13,7.73,7.18,15.45,14.35,23.17,21.79,7.17,7.45,14.34,15.17,21.52,22.9,6.89,8.27,13.51,16.55,20.13,24.82,6.35,8.83,12.41,17.65,18.76,26.48,5.79,9.65,11.86,19,17.65,28.69,5.24,9.93,10.76,19.86,16,29.51,4.69,9.93,9.1,19.86,13.79,29.79,3.86,9.93,7.45,19.86,11.31,29.79,3,10.2,6.34,20.13,9.38,30.34,2.2,10.2,4.69,20.69,7.17,30.89l5,31.45c.83,11,1.93,21.79,2.76,32.54.55,11.31.83,22.34,1.1,33.65-.27,11.31-.55,22.35-1.1,33.65-.83,10.76-1.93,21.52-2.76,32.55l-5,31.45c-2.48,10.2-5,20.68-7.17,30.89-3,9.93-6.35,20.13-9.38,30.06-3.86,9.93-7.45,20.14-11.31,30.07-4.69,9.65-9.1,19.58-13.79,29.51-5.24,9.93-10.76,19.58-16,29.51-5.79,9.66-11.86,19-17.65,28.69-6.35,8.83-12.41,17.65-18.76,26.75-6.62,8.28-13.51,16.55-20.13,24.83l-21.52,23.17L2073,2132.44c-8.27,6.62-16.55,13.52-24.82,20.14-8.83,6.34-17.65,12.41-26.48,18.75-9.65,5.8-19,11.86-28.69,17.66-9.93,5.24-19.58,10.48-29.51,16-9.93,4.42-19.86,9.11-29.79,13.52l-29.79,11.58c-9.93,3-20.13,6.07-30.34,9.11-10.2,2.48-20.41,5-30.62,7.17-10.48,1.65-21.23,3.31-31.72,5.24-10.75.83-21.51,1.93-32.27,2.76C1767.61,2254.91,1756.58,2255.18,1745.27,2255.46Zm0,494.55c-22.34-.55-44.68-1.37-67-1.93-21.79-1.93-43.31-4.13-65.1-6.06-21-3.31-41.92-6.62-63.16-9.93-20.41-4.69-40.82-9.66-61.51-14.35-20.14-6.06-40.27-12.13-60.41-18.48-19.86-7.44-39.71-15.17-59.57-22.89-19.86-9.1-39.45-18.2-59.31-27.31-19.58-10.48-39.44-21.24-59-31.72-19-11.86-38.07-23.44-57.1-35.3-17.93-12.41-35.58-25.1-53.23-37.51-16.55-13.52-33.1-26.76-49.65-40.28l-46.34-43-43-46.34c-13.51-16.55-26.75-33.1-40.27-49.65-12.41-17.65-25.1-35.31-37.51-53.24-11.86-19-23.45-38.06-35.31-57.09-10.48-19.58-21.24-39.44-31.72-59-9.1-19.86-18.2-39.44-27.3-59.3-7.73-19.86-15.45-39.72-22.9-59.58-6.34-20.13-12.41-40.27-18.48-60.4-4.69-20.69-9.65-41.1-14.34-61.51-3.31-21.24-6.62-42.2-9.93-63.17-1.93-21.79-4.14-43.3-6.07-65.09-.55-22.34-1.38-44.68-1.93-67,.55-22.34,1.38-44.68,1.93-67,1.93-21.79,3.86-43.31,6.07-65.1,3.31-21,6.62-41.92,9.93-63.16,4.69-20.41,9.38-40.82,14.07-61.51,6.34-20.13,12.41-40.27,18.48-60.41,7.72-19.85,15.44-39.71,22.89-59.57,9.1-19.86,18.21-39.45,27.31-59.31,10.75-19.58,21.24-39.44,32-59,11.86-19,23.45-38.07,35.31-57.1,12.41-17.93,25.1-35.58,37.51-53.23,13.52-16.55,27-33.1,40.27-49.65l43-46.34,46.34-43c16.55-13.51,33.1-26.75,49.65-40.27,17.65-12.41,35.3-25.1,53.23-37.51,19-11.86,38.06-23.45,57.1-35.31,19.86-10.48,39.44-21.23,59.3-31.72,19.58-9.1,39.44-18.2,59-27.3,19.86-7.73,39.71-15.45,59.57-22.9,20.14-6.34,40.27-12.41,60.41-18.48,20.69-4.69,41.1-9.65,61.51-14.34,21.24-3.31,42.2-6.62,63.16-9.93,21.52-1.93,43.31-4.14,64.82-6.07,22.34-.55,44.68-1.38,67-1.93,22.34.55,44.68,1.38,67,1.93,21.79,1.93,43.31,4.14,64.82,6.07,21.24,3.31,42.2,6.62,63.16,9.93,20.69,4.69,41.1,9.65,61.79,14.34,20.13,6.07,40.27,12.14,60.41,18.48,19.85,7.45,39.71,15.17,59.57,22.9,19.86,9.1,39.45,18.2,59.31,27.3,19.58,10.49,39.44,21.24,59,31.72,19,11.86,38.07,23.45,57.1,35.31,17.93,12.41,35.58,25.1,53.23,37.51,16.55,13.52,33.1,26.76,49.65,40.27l46.34,43,43,46.34c13.51,16.55,26.75,33.1,40.27,49.65,12.41,17.65,25.1,35.3,37.51,53.23,11.86,19,23.45,38.07,35.31,57.1,10.48,19.58,21.23,39.44,31.72,59,9.1,19.86,18.2,39.45,27.3,59.31,7.73,19.86,15.45,39.72,22.9,59.57,6.34,20.14,12.41,40.28,18.48,60.41,4.69,20.69,9.65,41.1,14.34,61.51,3.31,21.24,6.62,42.2,9.93,63.16,1.93,21.79,4.14,43.31,6.07,65.1.55,22.34,1.38,44.68,1.93,67-.55,22.35-1.38,44.69-1.93,67-1.93,21.79-3.86,43.3-6.07,65.09-3.31,21-6.62,41.93-9.93,63.17-4.69,20.41-9.38,40.82-14.07,61.51-6.34,20.13-12.41,40.27-18.48,60.4-7.72,19.86-15.44,39.72-22.89,59.58-9.1,19.86-18.21,39.44-27.31,59.3-10.76,19.59-21.24,39.45-32,59-11.86,19-23.45,38.06-35.31,57.09-12.41,17.93-25.1,35.59-37.51,53.24-13.52,16.55-27,33.1-40.27,49.65l-43,46.34-46.34,43c-16.55,13.52-33.1,26.76-49.37,40.28-17.93,12.41-35.58,25.1-53.51,37.51-19,11.86-38.07,23.44-57.1,35.3-19.58,10.48-39.44,21.24-59,31.72-19.86,9.11-39.45,18.21-59.31,27.31-19.86,7.72-39.72,15.45-59.57,22.89-20.14,6.35-40.28,12.42-60.41,18.48-20.41,4.69-41.1,9.66-61.51,14.35-21,3.31-42.2,6.62-63.16,9.93-21.52,1.93-43,4.13-64.82,6.06C1790,2748.64,1767.61,2749.46,1745.27,2750Z"/><rect class="cls-1" x="755.06" y="769.59" width="1980.42" height="1980.7"/><path class="cls-3" d="M1745,2258.22c-91.85,0-169.64-21-249.07-66.75-79.72-45.79-136.81-102.88-182.6-182.32s-66.75-157.5-66.75-249.07c0-91.85,21-169.91,66.75-249.35s102.88-136.53,182.6-182.32c79.43-45.78,157.22-66.75,249.07-66.75s169.63,21,249.34,66.75c79.44,45.79,136.54,102.89,182.32,182.32s66.75,157.5,66.75,249.07c0,91.85-21,169.91-66.75,249.35s-102.88,136.53-182.32,182.32c-79.71,45.79-157.49,66.75-249.34,66.75Z"/><rect class="cls-1" x="1246.58" y="1261.66" width="997.11" height="996.83"/><path class="cls-2" d="M3284.1,2077.28c-5.79,29.24-12.69,57.92-20.14,86.33-34.47,128-86.6,251-158.32,375.12-71.71,124.4-152,231.14-245.48,324.65-93.78,93.5-200.53,174-324.65,245.76S2288.37,3233,2160.66,3267.46c-128,34.2-260.65,50.48-403.8,50.48-143.43,0-276.1-16.28-404.09-50.48-127.7-34.48-250.72-86.61-374.84-158.32s-230.87-152.26-324.65-245.76c-93.5-93.51-173.77-200.25-245.48-324.65C336.08,2414.61,284,2291.59,249.47,2163.61,215.27,2035.9,199,1903.23,199,1759.8s16.27-276.1,50.47-403.8C284,1228,336.08,1105,407.8,980.87c71.71-124.39,152-231.14,245.48-324.64,93.78-93.51,200.53-174,324.65-245.76s247.14-123.85,374.84-158.33c128-34.2,260.66-50.47,403.81-50.47s276.1,16.27,404.08,50.47c127.71,34.48,250.73,86.61,374.85,158.33s230.87,152.25,324.65,245.76c93.5,93.5,173.77,200.25,245.48,324.64C3177.36,1105,3229.49,1228,3264,1356c10.76,40.27,19.86,81.36,27,123H2850.5c-.82-3.86-1.93-7.72-3-11.58C2822.64,1375,2785.13,1285.94,2733,1196c-51.85-89.92-110.05-167.15-177.63-234.73-67.85-67.85-145.08-126-235-177.91S2141.63,693.74,2049,668.92c-92.41-24.83-188.39-36.69-292.1-36.69s-200,11.86-292.38,36.69c-92.67,24.82-181.49,62.61-271.41,114.46s-167.15,110.06-235,177.91C890.49,1028.87,832.29,1106.1,780.44,1196c-52.13,89.92-89.65,179-114.47,271.41-24.82,92.68-36.68,188.66-36.68,292.37s11.86,199.7,36.68,292.38c24.82,92.4,62.34,181.49,114.47,271.41,51.85,89.92,110,167.15,177.63,234.73,67.85,67.85,145.08,126,235,177.9s178.74,89.65,271.41,114.47c92.4,24.83,188.39,36.69,292.38,36.69,103.71,0,199.69-11.86,292.1-36.69,92.67-24.82,181.49-62.61,271.41-114.47s167.15-110,235-177.9c67.58-67.58,125.78-144.81,177.63-234.73,47.17-81.64,82.75-162.74,107.57-246.31Z"/><path class="cls-4" d="M3284.1,2077.28c-5.79,29.24-12.69,57.92-20.14,86.33-34.47,128-86.6,251-158.32,375.12-71.71,124.4-152,231.14-245.48,324.65-93.78,93.5-200.53,174-324.65,245.76S2288.37,3233,2160.66,3267.46c-128,34.2-260.65,50.48-403.8,50.48-143.43,0-276.1-16.28-404.09-50.48-127.7-34.48-250.72-86.61-374.84-158.32s-230.87-152.26-324.65-245.76c-93.5-93.51-173.77-200.25-245.48-324.65C336.08,2414.61,284,2291.59,249.47,2163.61,215.27,2035.9,199,1903.23,199,1759.8s16.27-276.1,50.47-403.8C284,1228,336.08,1105,407.8,980.87c71.71-124.39,152-231.14,245.48-324.64,93.78-93.51,200.53-174,324.65-245.76s247.14-123.85,374.84-158.33c128-34.2,260.66-50.47,403.81-50.47s276.1,16.27,404.08,50.47c127.71,34.48,250.73,86.61,374.85,158.33s230.87,152.25,324.65,245.76c93.5,93.5,173.77,200.25,245.48,324.64C3177.36,1105,3229.49,1228,3264,1356c10.76,40.27,19.86,81.36,27,123H2850.5c-.82-3.86-1.93-7.72-3-11.58C2822.64,1375,2785.13,1285.94,2733,1196c-51.85-89.92-110.05-167.15-177.63-234.73-67.85-67.85-145.08-126-235-177.91S2141.63,693.74,2049,668.92c-92.41-24.83-188.39-36.69-292.1-36.69s-200,11.86-292.38,36.69c-92.67,24.82-181.49,62.61-271.41,114.46s-167.15,110.06-235,177.91C890.49,1028.87,832.29,1106.1,780.44,1196c-52.13,89.92-89.65,179-114.47,271.41-24.82,92.68-36.68,188.66-36.68,292.37s11.86,199.7,36.68,292.38c24.82,92.4,62.34,181.49,114.47,271.41,51.85,89.92,110,167.15,177.63,234.73,67.85,67.85,145.08,126,235,177.9s178.74,89.65,271.41,114.47c92.4,24.83,188.39,36.69,292.38,36.69,103.71,0,199.69-11.86,292.1-36.69,92.67-24.82,181.49-62.61,271.41-114.47s167.15-110,235-177.9c67.58-67.58,125.78-144.81,177.63-234.73,47.17-81.64,82.75-162.74,107.57-246.31H3284.1"/><path class="cls-2" d="M1714.38,1473.22c-6.34-7.17-10.48-17.65-12.14-31.44-1.93-15.72,2.21-29.24,11.31-40,8-9.1,18.48-14.89,31.17-17.65,13.52-3,24.55-3.31,33.93-.55l-.28,25.93a118.57,118.57,0,0,0-29,1.65c-14.34,3.31-21,10.48-19.58,21.79.82,7.72,4.41,13.52,11.31,16.83.82.27,6.89,2.2,18.2,5,17.65,4.41,29.24,14.34,35,30.07a237.85,237.85,0,0,1,36.13,8.82,39.25,39.25,0,0,1-6.62-11.86c-3.31-9.1-3-20.41.55-33.65,4.14-15.44,12.69-26.48,25.38-33.1,10.76-5.51,22.62-7.17,35.31-5,13.51,2.2,24,6.34,31.72,12.41l-9.93,23.72c-10.21-4.41-19-7.72-27.31-9.1-14.62-2.48-23.45,1.93-26.48,13-1.93,7.45-.55,14.07,4.41,19.86.55.55,5.52,4.41,15.17,11.31,14.9,11,22.07,25.1,21.24,42.2a269.65,269.65,0,0,1,34.48,25.1,47.92,47.92,0,0,1-1.93-14.89c.83-9.93,5.24-20.14,13.79-30.9,9.65-12.41,21.79-19.3,36.13-20.68,11.86-.83,23.45,2.48,34.48,9.38,11.59,7.44,19.59,14.89,24.27,23.72l-18.2,17.93c-7.72-8-14.62-14.62-21.79-19-12.41-8-22.34-7.17-29.24,1.66a20.18,20.18,0,0,0-3.86,19.86c.55.83,3.59,6.34,9.65,16.55,9.66,16,10.49,32,2.76,47.71,4.69,6.62,9.11,13.8,13.52,21.24,4.69,8,8.82,16.28,12.69,24.28a43,43,0,0,1,4.69-16c4.68-8.55,13-16,25.37-22.34,14.07-7.18,28.14-8.28,41.38-3.31,11.3,4.13,20.41,11.86,27.58,22.61,7.44,11.59,11.58,22.07,12.13,31.72l-24,8.83c-3.59-10.48-7.45-19.31-11.86-26.2-8-12.69-17.38-16.28-27.31-11-6.9,3.59-11,9.11-11.86,16.55,0,1.11.55,7.17,1.93,19,1.93,18.75-3.86,33.65-17.65,44.68a283.13,283.13,0,0,1,4.41,49.37,39.47,39.47,0,0,1,11.31-13.51c7.72-6.07,18.2-9.38,32.27-10.21,15.72-1.1,29,3.59,39.17,13.52,8.55,8.55,13.79,19.3,16,32,1.93,13.79,1.65,24.83-1.66,33.93l-25.93-1.66c1.11-11,1.38-20.68,0-29-2.2-14.62-9.1-21.79-20.41-21-8,.55-13.79,3.86-17.37,10.48-.56.83-2.76,6.62-6.35,17.93-5.51,17.93-17.1,29.24-33.92,33.65a266,266,0,0,1-17.66,51,50.8,50.8,0,0,1,15.72-7.45c9.66-2.21,20.69-.83,33.65,4.14,14.62,5.79,24.83,15.72,29.79,29,4.42,11.31,4.69,23.17,1.11,35.86-3.86,13.24-8.83,22.89-15.72,30.06l-22.62-12.41c5.51-9.65,9.93-18.21,12.13-26.2,4.14-14.35.56-23.73-9.93-27.86-7.17-2.76-14.06-2.21-20.13,2.2-.83.56-5.24,5-13,13.8-13,14.06-28.14,19.3-45.52,16.27a270.09,270.09,0,0,1-35.3,37.79,42.84,42.84,0,0,1,16.82,0c9.66,1.93,19,7.72,28.69,17.65,11,11.31,16.27,24.55,15.45,38.62a54.18,54.18,0,0,1-14.07,32.82c-8.83,10.76-17.65,17.38-26.76,21L1935.87,2061c9.1-6.34,16.55-12.41,21.79-18.75,9.65-11.31,10.48-21.24,2.76-29.24-5.52-5.79-11.86-8-19.31-6.62-.83.28-6.9,2.48-17.65,7.17-17.38,7.45-33.38,6.07-48-3.86a278.61,278.61,0,0,1-47.44,19.86,45.6,45.6,0,0,1,14.34,6.62c8,5.79,14.07,15.17,18.76,28.13,5.24,14.9,4.41,29-2.21,41.65q-8.69,15.72-26.48,24c-12.41,5.79-23.17,8.55-33.1,7.72l-5.24-25.1c10.76-1.93,20.14-4.41,27.59-8,13.51-6.34,18.48-14.89,14.61-25.65-2.48-7.17-7.44-12.13-14.89-13.79-.83-.27-7.17-.55-18.76-.83-18.75-.55-32.54-8.27-41.65-22.89-5.24.28-10.48.28-16,.28a335.13,335.13,0,0,1-37.79-2.21,47,47,0,0,1,9.65,11.58c4.42,8.56,6.35,19.59,5,33.38-1.66,15.72-8.28,27.86-19.59,36.41a56.71,56.71,0,0,1-34.2,10.76c-13.79,0-24.82-2.21-33.37-6.9l5.79-25.1c10.76,2.76,20.41,4.41,28.68,4.41,14.9,0,22.9-5.79,24-17.1.55-7.72-1.65-14.07-7.72-18.75-.55-.56-6.07-3.59-16.83-8.83-16.27-8.28-25.37-20.69-27.58-37.24a291.51,291.51,0,0,1-36.13-17.93c-1.93-1.1-3.59-2.2-5.24-3a44.87,44.87,0,0,1,3.86,14.07c.83,9.65-1.93,20.41-8.83,32.54-7.72,13.8-18.75,22.35-32.55,25.66-11.86,2.75-23.72,1.38-35.58-3.87C1513.86,2064,1505,2057.69,1499,2050l15.17-20.69c8.83,6.9,16.83,12.14,24.55,15.45,13.52,6.07,23.17,3.86,28.69-6.07,3.86-6.62,4.13-13.51.55-20.13-.55-.83-4.14-5.8-11.86-14.9-11.59-13.79-14.9-28.68-10.76-44.68a265.1,265.1,0,0,1-29.24-35.58,44.09,44.09,0,0,1-2.2,13.79c-3,9.38-9.93,18.2-21,26.48-12.69,9.65-26.2,13-40.27,10.48-11.86-2.21-22.06-8.28-30.89-17.65-9.38-10.21-15.17-19.59-17.65-29.24l22.34-12.69c5.24,9.66,10.48,17.93,16.27,24,9.93,10.76,19.59,12.69,28.69,5.79,6.07-4.69,9.1-10.76,8.55-18.2q0-1.25-5-18.21c-5-17.38-2.2-32.55,8.28-45.23a244.74,244.74,0,0,1-15.72-59.31,53.62,53.62,0,0,1-7.73,10.76q-10.33,10.35-30.61,14.07c-15.72,3-29.52,0-40.82-8.55-9.38-7.45-16-17.38-19.59-30.07-3.86-13.24-4.69-24.27-2.48-33.65l25.65-1.65c.28,11.31,1.38,20.68,3.59,28.68,4.13,14.35,11.86,20.41,22.89,18.48,7.72-1.38,13.24-5.51,16-12.41.27-1.1,1.65-7.17,3.86-18.76,3.31-17.65,12.41-29.78,27.31-36.68a257.74,257.74,0,0,1,10.2-52.68A42.31,42.31,0,0,1,1465,1687c-9.37,3-20.41,3-33.92-.56-15.17-4.13-26.48-12.68-32.83-25.1a56,56,0,0,1-5.24-35.58c2.21-13.51,6.07-23.72,12.14-31.72l24,9.93c-4.42,9.93-7.73,19-9.1,27.31-2.49,14.62,1.93,23.44,13,26.48,7.45,1.93,14.34.55,19.86-4.42.55-.82,4.41-5.79,11.31-15.17,10.48-14.61,24-21.79,40.27-21.51a297,297,0,0,1,22.06-32,41.15,41.15,0,0,1-12.68,1.66c-9.66-.55-19.86-5-31.17-13.24-12.41-9.38-19.59-21.79-21-35.86-1.1-11.86,1.94-23.44,8.56-34.75,7.44-11.59,14.89-19.58,23.44-24.55l18.48,17.93c-8,7.72-14.34,14.89-18.76,22.06-7.72,12.69-7.17,22.62,1.94,29.24,6.34,4.69,13,6.07,20.13,3.31.83-.27,6.34-3.31,16.27-9.65,15.17-9.38,30.34-11,45.24-4.69,8.83-6.34,17.93-12.14,27.86-17.93a132.84,132.84,0,0,1,13.79-7.45,58.48,58.48,0,0,1-12.41-3.86c-8.55-4.41-16.28-12.69-22.9-24.82-7.72-13.79-9.1-27.86-4.41-41.38,3.86-11.3,11.31-20.68,22.07-28.13,11.3-7.72,21.51-11.86,31.44-13l9.38,24c-10.48,3.86-19.31,7.73-26.21,12.41-12.13,8.28-15.44,17.66-10.2,27.59,3.86,6.89,9.38,10.75,16.82,11.31,1.11,0,7.45-.56,19-2.21,17.65-2.48,32,2.48,43,14.07a311.83,311.83,0,0,1,39.71-5.52A39.29,39.29,0,0,1,1714.38,1473.22Z"/><rect class="cls-1" x="1364.91" y="1381.65" width="761" height="756.59"/></g></svg>